<mxfile host="app.diagrams.net" agent="Mozilla/5.0 (X11; Linux x86_64; rv:130.0) Gecko/20100101 Firefox/130.0" version="24.7.14">
  <diagram name="Page-1" id="gG51Od18AzhkP7Pfx0KL">
    <mxGraphModel dx="2284" dy="794" grid="0" gridSize="10" guides="1" tooltips="1" connect="1" arrows="1" fold="1" page="1" pageScale="1" pageWidth="850" pageHeight="1100" math="0" shadow="0">
      <root>
        <mxCell id="0" />
        <mxCell id="1" parent="0" />
        <mxCell id="-O853JUOFa3dfuQeVED0-1" value="&lt;div style=&quot;font-size: 21px;&quot;&gt;&lt;font style=&quot;font-size: 21px;&quot;&gt;Airflow&lt;br&gt;&lt;/font&gt;&lt;/div&gt;&lt;div style=&quot;font-size: 21px;&quot;&gt;&lt;font style=&quot;font-size: 21px;&quot;&gt;Aquisition Dag&lt;font style=&quot;font-size: 21px;&quot;&gt;&lt;br&gt;&lt;/font&gt;&lt;/font&gt;&lt;/div&gt;" style="rounded=0;whiteSpace=wrap;html=1;" parent="1" vertex="1">
          <mxGeometry x="322" y="48" width="120" height="120" as="geometry" />
        </mxCell>
        <mxCell id="-O853JUOFa3dfuQeVED0-3" value="&lt;div&gt;&lt;br&gt;&lt;/div&gt;&lt;div&gt;&lt;br&gt;&lt;/div&gt;&lt;div&gt;&lt;br&gt;&lt;/div&gt;&lt;div&gt;&lt;br&gt;&lt;/div&gt;&lt;div&gt;&lt;br&gt;&lt;/div&gt;&lt;div&gt;&lt;br&gt;&lt;/div&gt;&lt;div&gt;&lt;br&gt;&lt;/div&gt;&lt;div&gt;&lt;font style=&quot;font-size: 22px;&quot;&gt;SQL&lt;br&gt;&lt;/font&gt;&lt;/div&gt;&lt;div&gt;&lt;font style=&quot;font-size: 22px;&quot;&gt;&lt;br&gt;&lt;/font&gt;&lt;/div&gt;&lt;br&gt;&lt;div style=&quot;&quot;&gt;&lt;br&gt;&lt;/div&gt;&lt;div style=&quot;&quot;&gt;&lt;br&gt;&lt;/div&gt;&lt;div style=&quot;&quot;&gt;&amp;nbsp; &lt;br&gt;&lt;/div&gt;&lt;div style=&quot;&quot;&gt;&lt;br&gt;&lt;/div&gt;" style="rounded=0;whiteSpace=wrap;html=1;" parent="1" vertex="1">
          <mxGeometry x="334" y="342" width="91" height="49" as="geometry" />
        </mxCell>
        <mxCell id="-O853JUOFa3dfuQeVED0-6" value="&lt;div style=&quot;font-size: 18px;&quot;&gt;&lt;font style=&quot;font-size: 18px;&quot;&gt;&lt;br&gt;&lt;/font&gt;&lt;/div&gt;&lt;div style=&quot;font-size: 18px;&quot;&gt;&lt;font style=&quot;font-size: 18px;&quot;&gt;Flask&lt;/font&gt;&lt;/div&gt;&lt;div style=&quot;font-size: 18px;&quot;&gt;&lt;font style=&quot;font-size: 18px;&quot;&gt;App&lt;/font&gt;&lt;/div&gt;&lt;div style=&quot;font-size: 18px;&quot;&gt;&lt;font style=&quot;font-size: 18px;&quot;&gt;&lt;br&gt;&lt;/font&gt;&lt;/div&gt;" style="rounded=0;whiteSpace=wrap;html=1;" parent="1" vertex="1">
          <mxGeometry x="24" y="71" width="120" height="69.5" as="geometry" />
        </mxCell>
        <mxCell id="43wRwh9KYVNC-H3UIhh2-2" value="&lt;div&gt;&lt;font style=&quot;font-size: 32px;&quot;&gt;Airflow&lt;br&gt;&lt;/font&gt;&lt;/div&gt;&lt;div style=&quot;font-size: 17px;&quot;&gt;ETL Dag&lt;font style=&quot;font-size: 17px;&quot;&gt;&lt;br&gt;&lt;/font&gt;&lt;/div&gt;" style="rounded=0;whiteSpace=wrap;html=1;" parent="1" vertex="1">
          <mxGeometry x="166" y="168" width="120" height="100" as="geometry" />
        </mxCell>
        <mxCell id="43wRwh9KYVNC-H3UIhh2-3" value="" style="endArrow=classic;html=1;rounded=0;exitX=0;exitY=0.5;exitDx=0;exitDy=0;" parent="1" source="-O853JUOFa3dfuQeVED0-1" target="-O853JUOFa3dfuQeVED0-6" edge="1">
          <mxGeometry width="50" height="50" relative="1" as="geometry">
            <mxPoint x="388" y="199" as="sourcePoint" />
            <mxPoint x="438" y="149" as="targetPoint" />
          </mxGeometry>
        </mxCell>
        <mxCell id="43wRwh9KYVNC-H3UIhh2-4" value="&lt;div&gt;Triggers For Data Aquisition&lt;/div&gt;&lt;div&gt;&lt;br&gt;&lt;/div&gt;" style="text;html=1;align=center;verticalAlign=middle;resizable=0;points=[];autosize=1;strokeColor=none;fillColor=none;rotation=0;" parent="1" vertex="1">
          <mxGeometry x="148" y="104" width="166" height="41" as="geometry" />
        </mxCell>
        <mxCell id="43wRwh9KYVNC-H3UIhh2-6" value="" style="endArrow=classic;html=1;rounded=0;exitX=0.5;exitY=1;exitDx=0;exitDy=0;entryX=0.5;entryY=0;entryDx=0;entryDy=0;" parent="1" source="-O853JUOFa3dfuQeVED0-1" target="-O853JUOFa3dfuQeVED0-3" edge="1">
          <mxGeometry width="50" height="50" relative="1" as="geometry">
            <mxPoint x="376" y="257" as="sourcePoint" />
            <mxPoint x="426" y="207" as="targetPoint" />
          </mxGeometry>
        </mxCell>
        <mxCell id="43wRwh9KYVNC-H3UIhh2-7" value="&lt;div&gt;Update Status for Acquisition&lt;/div&gt;&lt;div&gt;&lt;br&gt;&lt;/div&gt;" style="text;html=1;align=center;verticalAlign=middle;resizable=0;points=[];autosize=1;strokeColor=none;fillColor=none;rotation=0;" parent="1" vertex="1">
          <mxGeometry x="379" y="307" width="172" height="41" as="geometry" />
        </mxCell>
        <mxCell id="43wRwh9KYVNC-H3UIhh2-8" value="" style="endArrow=classic;startArrow=classic;html=1;rounded=0;entryX=0.425;entryY=0.98;entryDx=0;entryDy=0;exitX=0;exitY=0.5;exitDx=0;exitDy=0;entryPerimeter=0;" parent="1" source="-O853JUOFa3dfuQeVED0-3" target="43wRwh9KYVNC-H3UIhh2-2" edge="1">
          <mxGeometry width="50" height="50" relative="1" as="geometry">
            <mxPoint x="376" y="257" as="sourcePoint" />
            <mxPoint x="426" y="207" as="targetPoint" />
          </mxGeometry>
        </mxCell>
        <mxCell id="43wRwh9KYVNC-H3UIhh2-9" value="&lt;div&gt;Fetch Status For ETL Process&lt;/div&gt;&lt;div&gt;&lt;br&gt;&lt;/div&gt;" style="text;html=1;align=center;verticalAlign=middle;resizable=0;points=[];autosize=1;strokeColor=none;fillColor=none;" parent="1" vertex="1">
          <mxGeometry x="75" y="299" width="177" height="41" as="geometry" />
        </mxCell>
        <mxCell id="43wRwh9KYVNC-H3UIhh2-10" value="" style="endArrow=classic;html=1;rounded=0;entryX=0.533;entryY=1.065;entryDx=0;entryDy=0;entryPerimeter=0;" parent="1" target="-O853JUOFa3dfuQeVED0-6" edge="1">
          <mxGeometry width="50" height="50" relative="1" as="geometry">
            <mxPoint x="162" y="226" as="sourcePoint" />
            <mxPoint x="219" y="207" as="targetPoint" />
            <Array as="points">
              <mxPoint x="88" y="226" />
            </Array>
          </mxGeometry>
        </mxCell>
        <mxCell id="43wRwh9KYVNC-H3UIhh2-11" value="Triggers For ETL Process" style="text;html=1;align=center;verticalAlign=middle;resizable=0;points=[];autosize=1;strokeColor=none;fillColor=none;" parent="1" vertex="1">
          <mxGeometry x="-10" y="233" width="154" height="26" as="geometry" />
        </mxCell>
        <mxCell id="43wRwh9KYVNC-H3UIhh2-12" value="&lt;font style=&quot;font-size: 17px;&quot;&gt;Jdbc Connector&lt;br&gt;&lt;/font&gt;" style="rounded=0;whiteSpace=wrap;html=1;" parent="1" vertex="1">
          <mxGeometry x="-191" y="78" width="120" height="60" as="geometry" />
        </mxCell>
        <mxCell id="43wRwh9KYVNC-H3UIhh2-13" value="" style="endArrow=classic;html=1;rounded=0;exitX=0;exitY=0.5;exitDx=0;exitDy=0;" parent="1" source="-O853JUOFa3dfuQeVED0-6" target="43wRwh9KYVNC-H3UIhh2-12" edge="1">
          <mxGeometry width="50" height="50" relative="1" as="geometry">
            <mxPoint x="169" y="212" as="sourcePoint" />
            <mxPoint x="219" y="162" as="targetPoint" />
          </mxGeometry>
        </mxCell>
        <mxCell id="43wRwh9KYVNC-H3UIhh2-14" value="Process ETL" style="text;html=1;align=center;verticalAlign=middle;resizable=0;points=[];autosize=1;strokeColor=none;fillColor=none;" parent="1" vertex="1">
          <mxGeometry x="-60" y="78" width="86" height="26" as="geometry" />
        </mxCell>
        <mxCell id="43wRwh9KYVNC-H3UIhh2-15" value="" style="endArrow=classic;html=1;rounded=0;exitX=0.5;exitY=1;exitDx=0;exitDy=0;entryX=0;entryY=0.5;entryDx=0;entryDy=0;" parent="1" source="43wRwh9KYVNC-H3UIhh2-12" target="-O853JUOFa3dfuQeVED0-3" edge="1">
          <mxGeometry width="50" height="50" relative="1" as="geometry">
            <mxPoint x="169" y="242" as="sourcePoint" />
            <mxPoint x="219" y="192" as="targetPoint" />
            <Array as="points">
              <mxPoint x="-131" y="367" />
            </Array>
          </mxGeometry>
        </mxCell>
      </root>
    </mxGraphModel>
  </diagram>
</mxfile>
